<?xml version="1.0" encoding="utf-8"?>
<!-- Generator: Adobe Illustrator 24.2.1, SVG Export Plug-In . SVG Version: 6.00 Build 0)  -->
<svg version="1.1" id="Layer_1" xmlns="http://www.w3.org/2000/svg" xmlns:xlink="http://www.w3.org/1999/xlink" x="0px" y="0px"
	 viewBox="0 0 60.1 53" style="enable-background:new 0 0 60.1 53;" xml:space="preserve">
<style type="text/css">
	.st0{fill:#282828;}
</style>
<g>
	<g>
		<defs>
			<path id="SVGID_1_" d="M56.2,47.1c-0.5-1.2-1.3-1.9-2.7-2c-2-0.2-4.1-0.8-5.1-2.7c-1.7-3.3-3-6.8-4.4-10.2
				c-0.2-0.4-0.1-1.1,0.1-1.5c2.1-4.6,4.3-9.2,6.5-13.8c1.1,0.4,2,0.8,3.1,1.2c0-5.3,0-10.2,0-15.7c-4.4,3.1-8.5,6-12.8,9
				c1.2,0.8,2.2,1.4,3.3,2.1c-1.3,2.9-2.6,5.8-3.9,8.9c-0.8-1-1.4-1.9-2.1-2.7c-5.2-5.5-11.6-7.3-18.9-6C8.9,15.7,0,26.3,5.2,39.4
				c4.5,11.4,20.6,14.5,29.6,5.9c1.1-1.1,2.1-2.2,3.1-3.3c1.3,2,2.4,4.1,3.9,5.9c1.1,1.5,2.7,2.6,4.7,2.4c3-0.3,5.9-0.8,8.8-1.3
				C56.3,49,56.7,48.3,56.2,47.1z M35.1,34.3c-1.6,4.6-4.1,8.5-8.8,10.5c-3.8,1.6-7.7,0.3-10.1-3c-2.2-2.9-2.8-6.2-2.8-9.4
				c-0.1-4.8,1.1-8.7,4.2-11.8c4.1-4,9.2-3.4,12.7,1.4c2.4,3.4,3.8,7.2,4.7,11.2C35.1,33.6,35.2,34,35.1,34.3z"/>
		</defs>
		<use xlink:href="#SVGID_1_"  style="overflow:visible;fill:#282828;"/>
		<clipPath id="SVGID_2_">
			<use xlink:href="#SVGID_1_"  style="overflow:visible;"/>
		</clipPath>
	</g>
	<path class="st0" d="M56.2,47.1c-0.5-1.2-1.3-1.9-2.7-2c-2-0.2-4.1-0.8-5.1-2.7c-1.7-3.3-3-6.8-4.4-10.2c-0.2-0.4-0.1-1.1,0.1-1.5
		c2.1-4.6,4.3-9.2,6.5-13.8c1.1,0.4,2,0.8,3.1,1.2c0-5.3,0-10.2,0-15.7c-4.4,3.1-8.5,6-12.8,9c1.2,0.8,2.2,1.4,3.3,2.1
		c-1.3,2.9-2.6,5.8-3.9,8.9c-0.8-1-1.4-1.9-2.1-2.7c-5.2-5.5-11.6-7.3-18.9-6C8.9,15.7,0,26.3,5.2,39.4c4.5,11.4,20.6,14.5,29.6,5.9
		c1.1-1.1,2.1-2.2,3.1-3.3c1.3,2,2.4,4.1,3.9,5.9c1.1,1.5,2.7,2.6,4.7,2.4c3-0.3,5.9-0.8,8.8-1.3C56.3,49,56.7,48.3,56.2,47.1z
		 M35.1,34.3c-1.6,4.6-4.1,8.5-8.8,10.5c-3.8,1.6-7.7,0.3-10.1-3c-2.2-2.9-2.8-6.2-2.8-9.4c-0.1-4.8,1.1-8.7,4.2-11.8
		c4.1-4,9.2-3.4,12.7,1.4c2.4,3.4,3.8,7.2,4.7,11.2C35.1,33.6,35.2,34,35.1,34.3z"/>
	<g>
		<defs>
			<path id="SVGID_3_" d="M56.2,47.1c-0.5-1.2-1.3-1.9-2.7-2c-2-0.2-4.1-0.8-5.1-2.7c-1.7-3.3-3-6.8-4.4-10.2
				c-0.2-0.4-0.1-1.1,0.1-1.5c2.1-4.6,4.3-9.2,6.5-13.8c1.1,0.4,2,0.8,3.1,1.2c0-5.3,0-10.2,0-15.7c-4.4,3.1-8.5,6-12.8,9
				c1.2,0.8,2.2,1.4,3.3,2.1c-1.3,2.9-2.6,5.8-3.9,8.9c-0.8-1-1.4-1.9-2.1-2.7c-5.2-5.5-11.6-7.3-18.9-6C8.9,15.7,0,26.3,5.2,39.4
				c4.5,11.4,20.6,14.5,29.6,5.9c1.1-1.1,2.1-2.2,3.1-3.3c1.3,2,2.4,4.1,3.9,5.9c1.1,1.5,2.7,2.6,4.7,2.4c3-0.3,5.9-0.8,8.8-1.3
				C56.3,49,56.7,48.3,56.2,47.1z M35.1,34.3c-1.6,4.6-4.1,8.5-8.8,10.5c-3.8,1.6-7.7,0.3-10.1-3c-2.2-2.9-2.8-6.2-2.8-9.4
				c-0.1-4.8,1.1-8.7,4.2-11.8c4.1-4,9.2-3.4,12.7,1.4c2.4,3.4,3.8,7.2,4.7,11.2C35.1,33.6,35.2,34,35.1,34.3z"/>
		</defs>
		<use xlink:href="#SVGID_3_"  style="overflow:visible;fill:#282828;"/>
		<clipPath id="SVGID_4_">
			<use xlink:href="#SVGID_3_"  style="overflow:visible;"/>
		</clipPath>
	</g>
</g>
</svg>
